<svg width="20" height="21" viewBox="0 0 20 21" fill="none" xmlns="http://www.w3.org/2000/svg">
<g id="log-out-02">
<path id="Icon" d="M13.3333 14.9167L17.5 10.75M17.5 10.75L13.3333 6.58333M17.5 10.75H7.5M10 14.9167C10 15.6916 10 16.0791 9.91482 16.397C9.68365 17.2598 9.00978 17.9336 8.14705 18.1648C7.82913 18.25 7.44164 18.25 6.66667 18.25H6.25C5.08515 18.25 4.50272 18.25 4.04329 18.0597C3.43072 17.806 2.94404 17.3193 2.6903 16.7067C2.5 16.2473 2.5 15.6649 2.5 14.5V7C2.5 5.83515 2.5 5.25272 2.6903 4.79329C2.94404 4.18072 3.43072 3.69404 4.04329 3.4403C4.50272 3.25 5.08515 3.25 6.25 3.25H6.66667C7.44164 3.25 7.82913 3.25 8.14705 3.33519C9.00978 3.56635 9.68365 4.24022 9.91482 5.10295C10 5.42087 10 5.80836 10 6.58333" stroke="#408BFB" stroke-width="1.5" stroke-linecap="round" stroke-linejoin="round"/>
</g>
</svg>
