<svg width="20" height="21" viewBox="0 0 20 21" fill="none" xmlns="http://www.w3.org/2000/svg">
<g id="settings-01">
<g id="Icon">
<path d="M10 12.7498C11.3807 12.7498 12.5 11.6305 12.5 10.2498C12.5 8.86913 11.3807 7.74984 10 7.74984C8.61931 7.74984 7.50002 8.86913 7.50002 10.2498C7.50002 11.6305 8.61931 12.7498 10 12.7498Z" stroke="#408BFB" stroke-width="1.5" stroke-linecap="round" stroke-linejoin="round"/>
<path d="M15.6061 12.5226C15.5052 12.7511 15.4752 13.0045 15.5197 13.2503C15.5643 13.496 15.6814 13.7228 15.8561 13.9014L15.9015 13.9468C16.0424 14.0875 16.1542 14.2546 16.2304 14.4386C16.3067 14.6225 16.3459 14.8197 16.3459 15.0188C16.3459 15.2179 16.3067 15.4151 16.2304 15.599C16.1542 15.7829 16.0424 15.95 15.9015 16.0907C15.7608 16.2316 15.5937 16.3434 15.4098 16.4196C15.2258 16.4959 15.0287 16.5351 14.8296 16.5351C14.6305 16.5351 14.4333 16.4959 14.2494 16.4196C14.0654 16.3434 13.8983 16.2316 13.7576 16.0907L13.7121 16.0453C13.5336 15.8706 13.3068 15.7535 13.0611 15.7089C12.8153 15.6644 12.5619 15.6944 12.3334 15.7953C12.1093 15.8913 11.9182 16.0508 11.7836 16.254C11.649 16.4573 11.5768 16.6955 11.5758 16.9392V17.068C11.5758 17.4699 11.4161 17.8552 11.132 18.1394C10.8479 18.4235 10.4625 18.5832 10.0606 18.5832C9.65878 18.5832 9.2734 18.4235 8.98925 18.1394C8.70511 17.8552 8.54548 17.4699 8.54548 17.068V16.9998C8.53961 16.7491 8.45844 16.5059 8.31253 16.3019C8.16661 16.0979 7.9627 15.9425 7.72729 15.8559C7.4988 15.7551 7.24533 15.725 6.99957 15.7695C6.75382 15.8141 6.52705 15.9312 6.34851 16.1059L6.30305 16.1514C6.16233 16.2922 5.99523 16.404 5.81129 16.4802C5.62736 16.5565 5.4302 16.5957 5.23108 16.5957C5.03197 16.5957 4.83481 16.5565 4.65087 16.4802C4.46693 16.404 4.29983 16.2922 4.15911 16.1514C4.01824 16.0106 3.90648 15.8435 3.83023 15.6596C3.75398 15.4757 3.71474 15.2785 3.71474 15.0794C3.71474 14.8803 3.75398 14.6831 3.83023 14.4992C3.90648 14.3152 4.01824 14.1481 4.15911 14.0074L4.20457 13.962C4.37922 13.7834 4.49637 13.5566 4.54093 13.3109C4.58549 13.0651 4.55541 12.8117 4.45457 12.5832C4.35853 12.3591 4.19908 12.168 3.99583 12.0334C3.79258 11.8988 3.5544 11.8266 3.31063 11.8256H3.18184C2.78 11.8256 2.39461 11.666 2.11046 11.3818C1.82632 11.0977 1.66669 10.7123 1.66669 10.3104C1.66669 9.9086 1.82632 9.52322 2.11046 9.23907C2.39461 8.95492 2.78 8.79529 3.18184 8.79529H3.25002C3.50077 8.78943 3.74396 8.70826 3.94797 8.56235C4.15199 8.41643 4.30738 8.21252 4.39396 7.97711C4.4948 7.74861 4.52489 7.49515 4.48033 7.24939C4.43577 7.00364 4.31861 6.77687 4.14396 6.59832L4.09851 6.55287C3.95763 6.41215 3.84588 6.24505 3.76963 6.06111C3.69338 5.87717 3.65413 5.68001 3.65413 5.4809C3.65413 5.28178 3.69338 5.08462 3.76963 4.90069C3.84588 4.71675 3.95763 4.54965 4.09851 4.40893C4.23922 4.26805 4.40633 4.1563 4.59026 4.08005C4.7742 4.0038 4.97136 3.96455 5.17048 3.96455C5.36959 3.96455 5.56675 4.0038 5.75069 4.08005C5.93462 4.1563 6.10173 4.26805 6.24244 4.40893L6.2879 4.45438C6.46644 4.62903 6.69321 4.74619 6.93897 4.79075C7.18472 4.83531 7.43819 4.80523 7.66669 4.70438H7.72729C7.95136 4.60835 8.14246 4.44889 8.27706 4.24564C8.41166 4.04239 8.4839 3.80422 8.48487 3.56044V3.43166C8.48487 3.02981 8.6445 2.64443 8.92865 2.36028C9.21279 2.07614 9.59818 1.9165 10 1.9165C10.4019 1.9165 10.7872 2.07614 11.0714 2.36028C11.3555 2.64443 11.5152 3.02981 11.5152 3.43166V3.49984C11.5161 3.74362 11.5884 3.98179 11.723 4.18504C11.8576 4.38829 12.0487 4.54774 12.2727 4.64378C12.5012 4.74462 12.7547 4.7747 13.0005 4.73014C13.2462 4.68558 13.473 4.56843 13.6515 4.39378L13.697 4.34832C13.8377 4.20745 14.0048 4.09569 14.1887 4.01944C14.3727 3.94319 14.5698 3.90395 14.769 3.90395C14.9681 3.90395 15.1652 3.94319 15.3492 4.01944C15.5331 4.09569 15.7002 4.20745 15.8409 4.34832C15.9818 4.48904 16.0936 4.65614 16.1698 4.84008C16.2461 5.02402 16.2853 5.22118 16.2853 5.42029C16.2853 5.61941 16.2461 5.81657 16.1698 6.0005C16.0936 6.18444 15.9818 6.35154 15.8409 6.49226L15.7955 6.53772C15.6208 6.71626 15.5037 6.94303 15.4591 7.18879C15.4145 7.43454 15.4446 7.68801 15.5455 7.9165V7.97711C15.6415 8.20118 15.801 8.39228 16.0042 8.52688C16.2075 8.66148 16.4456 8.73371 16.6894 8.73469H16.8182C17.22 8.73469 17.6054 8.89432 17.8896 9.17846C18.1737 9.46261 18.3334 9.84799 18.3334 10.2498C18.3334 10.6517 18.1737 11.0371 17.8896 11.3212C17.6054 11.6054 17.22 11.765 16.8182 11.765H16.75C16.5062 11.766 16.2681 11.8382 16.0648 11.9728C15.8616 12.1074 15.7021 12.2985 15.6061 12.5226Z" stroke="#408BFB" stroke-width="1.5" stroke-linecap="round" stroke-linejoin="round"/>
</g>
</g>
</svg>
