<svg width="20" height="21" viewBox="0 0 20 21" fill="none" xmlns="http://www.w3.org/2000/svg">
<path d="M4.43027 16.9485C4.9372 15.7542 6.12079 14.9165 7.50002 14.9165H12.5C13.8793 14.9165 15.0628 15.7542 15.5698 16.9485M13.3334 8.6665C13.3334 10.5075 11.841 11.9998 10 11.9998C8.15907 11.9998 6.66669 10.5075 6.66669 8.6665C6.66669 6.82555 8.15907 5.33317 10 5.33317C11.841 5.33317 13.3334 6.82555 13.3334 8.6665ZM18.3334 10.7498C18.3334 15.3522 14.6024 19.0832 10 19.0832C5.39765 19.0832 1.66669 15.3522 1.66669 10.7498C1.66669 6.14746 5.39765 2.4165 10 2.4165C14.6024 2.4165 18.3334 6.14746 18.3334 10.7498Z" stroke="#408BFB" stroke-width="1.5" stroke-linecap="round" stroke-linejoin="round"/>
</svg>
