<svg width="19" height="19" viewBox="0 0 19 19" fill="none" xmlns="http://www.w3.org/2000/svg">
<path d="M17.375 7.75H1.625M13 0.75V4.25M6 0.75V4.25M6.875 13L8.625 14.75L12.5625 10.8125M5.825 18.25H13.175C14.6451 18.25 15.3802 18.25 15.9417 17.9639C16.4356 17.7122 16.8372 17.3106 17.0889 16.8167C17.375 16.2552 17.375 15.5201 17.375 14.05V6.7C17.375 5.22986 17.375 4.49479 17.0889 3.93327C16.8372 3.43935 16.4356 3.03778 15.9417 2.78611C15.3802 2.5 14.6451 2.5 13.175 2.5H5.825C4.35486 2.5 3.61979 2.5 3.05827 2.78611C2.56435 3.03778 2.16278 3.43935 1.91111 3.93327C1.625 4.49479 1.625 5.22986 1.625 6.7V14.05C1.625 15.5201 1.625 16.2552 1.91111 16.8167C2.16278 17.3106 2.56435 17.7122 3.05827 17.9639C3.61979 18.25 4.35486 18.25 5.825 18.25Z" stroke="#555555" stroke-opacity="0.6" stroke-width="1.5" stroke-linecap="round" stroke-linejoin="round"/>
</svg>
